<svg width="63" height="57" viewBox="0 0 63 57" fill="none" xmlns="http://www.w3.org/2000/svg">
<g filter="url(#filter0_d)">
<path d="M10.0078 48.4254H6.11077L8.86639 45.6697C10.3522 44.1839 11.28 42.2514 11.5295 40.1551C5.1667 35.9795 2 29.9304 2 23.5889C2 11.8894 12.7529 0 29.5932 0C47.4336 0 57 10.9405 57 22.5638C57 34.2638 47.3326 45.197 29.5932 45.197C26.4857 45.197 23.243 44.7822 20.3479 44.021C17.6074 46.8319 13.8941 48.4254 10.0078 48.4254V48.4254Z" fill="white"/>
<path d="M10.0078 47.4254H8.52499L9.5735 46.3769C11.2206 44.7298 12.2469 42.5887 12.5225 40.2732L12.5956 39.6586L12.0781 39.319C5.97577 35.3144 3 29.5688 3 23.5889C3 12.5135 13.2306 1 29.5932 1C46.9763 1 56 11.5832 56 22.5638C56 33.6204 46.8761 44.197 29.5932 44.197C26.569 44.197 23.4119 43.7926 20.6022 43.0539L20.0387 42.9057L19.6319 43.3229C17.0752 45.9453 13.6183 47.4254 10.0078 47.4254Z" stroke="#99278F" stroke-width="2"/>
</g>
<path d="M42.1784 18.4427H42.0975V18.0555C42.0975 11.9595 37.138 7 31.0419 7H28.9584C22.8624 7 17.9029 11.9595 17.9029 18.0555V18.4427H17.8221C16.865 18.4427 16.0864 19.2213 16.0864 20.1783V26.3543C16.0864 27.3113 16.865 28.0899 17.8221 28.0899H17.9313C18.1542 29.9133 19.7111 31.3305 21.5937 31.3305H26.7225C26.8661 31.6206 27.1642 31.8205 27.5098 31.8205H29.7636C30.249 31.8205 30.6425 31.427 30.6425 30.9416V29.9614C30.6425 29.476 30.249 29.0825 29.7636 29.0825H27.5098C27.1642 29.0825 26.8661 29.2825 26.7225 29.5726H21.5938C20.683 29.5726 19.9178 28.9391 19.7143 28.0898H19.7416C20.6987 28.0898 21.4772 27.3112 21.4772 26.3542V25.3889L20.8581 25.2711C19.5946 25.0591 18.6786 23.9767 18.6786 22.6946V19.2469C18.6786 18.1155 19.4492 17.1504 20.5526 16.9001L22.187 16.5292C27.2986 15.3695 32.7021 15.3695 37.8135 16.5292L39.448 16.9001C40.5513 17.1504 41.322 18.1155 41.322 19.2469V22.6946C41.322 23.9767 40.4058 25.0591 39.1424 25.2711L38.5233 25.3889V26.3542C38.5233 27.3112 39.3019 28.0898 40.2589 28.0898H40.3398V36.1211C40.3398 36.6065 40.7333 37 41.2187 37C41.704 37 42.0976 36.6065 42.0976 36.1211V28.0899H42.1784C43.1354 28.0899 43.914 27.3113 43.914 26.3543V20.1783C43.9139 19.2213 43.1354 18.4427 42.1784 18.4427Z" fill="#99278F"/>
<path d="M39.1882 18.043L37.5538 17.6722C35.0829 17.1116 32.5413 16.8312 29.9998 16.8312C27.4583 16.8312 24.9168 17.1116 22.4459 17.6722L20.8114 18.043C20.2454 18.1715 19.85 18.6667 19.85 19.2471V22.6947C19.85 23.4032 20.3571 24.001 21.0558 24.1162L21.0699 24.1187L27.0184 25.25C27.9722 25.4314 28.9004 24.8349 29.1313 23.8923L29.1392 23.8633L29.9999 20.9946L30.8605 23.8633L30.8684 23.8923C31.0992 24.8349 32.0274 25.4314 32.9813 25.25L38.9298 24.1187L38.9439 24.1162C39.6426 24.001 40.1497 23.4032 40.1497 22.6947V19.2471C40.1498 18.6666 39.7543 18.1715 39.1882 18.043Z" fill="#99278F"/>
<defs>
<filter id="filter0_d" x="0" y="0" width="63" height="56.4254" filterUnits="userSpaceOnUse" color-interpolation-filters="sRGB">
<feFlood flood-opacity="0" result="BackgroundImageFix"/>
<feColorMatrix in="SourceAlpha" type="matrix" values="0 0 0 0 0 0 0 0 0 0 0 0 0 0 0 0 0 0 127 0"/>
<feOffset dx="2" dy="4"/>
<feGaussianBlur stdDeviation="2"/>
<feColorMatrix type="matrix" values="0 0 0 0 0.6 0 0 0 0 0.152941 0 0 0 0 0.560784 0 0 0 0.25 0"/>
<feBlend mode="normal" in2="BackgroundImageFix" result="effect1_dropShadow"/>
<feBlend mode="normal" in="SourceGraphic" in2="effect1_dropShadow" result="shape"/>
</filter>
</defs>
</svg>
