<?xml version="1.0" encoding="utf-8"?>
<!-- Generator: Adobe Illustrator 23.0.0, SVG Export Plug-In . SVG Version: 6.00 Build 0)  -->
<svg version="1.1" id="Lag_1" xmlns="http://www.w3.org/2000/svg" xmlns:xlink="http://www.w3.org/1999/xlink" x="0px" y="0px"
	 viewBox="0 0 841.9 595.3" style="enable-background:new 0 0 841.9 595.3;" xml:space="preserve">
<style type="text/css">
	.st0{fill:#9E1981;}
	.st1{clip-path:url(#SVGID_2_);fill:#FFFFFF;}
</style>
<ellipse class="st0" cx="414" cy="293.1" rx="152" ry="148.8"/>
<g>
	<defs>
		<rect id="SVGID_1_" x="-1.2" y="14" width="841.9" height="595.3"/>
	</defs>
	<clipPath id="SVGID_2_">
		<use xlink:href="#SVGID_1_"  style="overflow:visible;"/>
	</clipPath>
	<path class="st1" d="M478.5,371L478.5,371c0,3.9,3.6,6.2,7.7,6.2c5.4,0,10.1-3.3,10.1-8.2v-3c-2.2-0.6-5.2-1.2-9-1.2
		C481.7,364.7,478.5,367.2,478.5,371"/>
	<path class="st1" d="M418.5,138.6c-87.6,0-158.7,71-158.7,158.6c0,87.6,71,158.6,158.7,158.6c87.6,0,158.7-71,158.7-158.6
		C577.1,209.6,506.1,138.6,418.5,138.6 M329.7,301.1C329.7,301.1,329.7,301.1,329.7,301.1C329.7,301.2,329.7,301.2,329.7,301.1
		c0,0.5,1.1,0.8,1.5,0.9c0.4,0.1,2.2,0.3,2.2,0.3l36.3,1.4l-8.6,28.4c0,0,0,0.1,0,0.1l-0.2,0.5c-0.5,1.5-2,2.5-3.6,2.5h-18.4
		c-1.6,0-3-1-3.6-2.4c0-0.1,0-0.1-0.1-0.2l-0.1-0.2c0,0,0-0.1,0-0.1l-8.3-26.8l-8.7,27c-0.5,1.6-2,2.7-3.7,2.7h-18.2
		c-1.7,0-3.2-1.1-3.7-2.6l-0.1-0.3l-18.5-61.9c-0.1-0.3-0.2-0.7-0.2-1.1c0-2.2,1.7-3.9,3.9-3.9h19.3c1.7,0,3.2,1.2,3.7,2.7
		c0,0.1,0.1,0.2,0.1,0.4l6.3,24.8l7.6-25.4c0.5-1.6,2-2.7,3.7-2.7h17.2c1.6,0,3,1,3.6,2.4l0.3,0.9l7.5,25.2l6.6-25.1
		c0-0.1,0-0.2,0.1-0.4c0.5-1.6,2-2.7,3.7-2.7h18.9c2.2,0,3.9,1.7,3.9,3.9c0,0.4,0,0.7-0.1,1.1c0,0.1,0,0.1,0,0.2l-8.4,27.8
		l-37.9,1.7c0,0-1.8,0.2-2.2,0.3C330.8,300.3,329.8,300.7,329.7,301.1C329.7,301.1,329.7,301.1,329.7,301.1
		C329.7,301.1,329.7,301.1,329.7,301.1 M417.5,336.3c-21.3,0-36.7-14.4-38.6-32.3l28.5,1.1c1.8,4.3,5.6,7.2,10.1,7.2
		c4.5,0,8.4-3,10.1-7.2l28.6-1.1C454.3,321.8,438.7,336.3,417.5,336.3 M428.3,296.7c-1-4.3-4.1-7.7-8-8.8c-0.2-1.9-1.2-13.3-1.5-14
		c-0.3-0.8-1.1-0.8-1.2-0.8h-0.1h-0.1c-0.1,0-0.8,0-1.2,0.8c-0.3,0.7-1.3,12.1-1.5,14c-3.9,1.1-7,4.5-8,8.8l-28,1.2
		c1.1-18.6,17-34.2,39-34.2c21.9,0,37.6,15.3,38.7,33.9c0,0,0,0.1,0,0.4L428.3,296.7z M498.8,378.9h-2.5v-4.4c-1.8,2.5-5.1,5-10.2,5
		c-5,0-10.3-2.8-10.3-8.3v-0.1c0-5.5,4.7-8.6,11.6-8.6c3.7,0,6.3,0.5,8.8,1.1v-1.1c0-5.3-3.3-8.1-8.8-8.1c-3.2,0-5.9,0.9-8.3,2.1
		l-1-2.2c2.9-1.4,5.8-2.3,9.5-2.3c3.6,0,6.5,1,8.4,2.9c1.8,1.8,2.7,4.2,2.7,7.5V378.9z M509.4,378.9h-2.6v-26.6h2.6V378.9z
		 M509.8,345.4h-3.2v-3.5h3.2V345.4z M532.3,354.7H532c-6.2,0-11.5,4.6-11.5,13.3v10.9h-2.5v-26.6h2.5v7.5c2.1-4.7,6.5-8.2,11.8-8
		V354.7z M561.4,270.6l-18.7,61.5c0,0,0,0.1,0,0.1l-0.2,0.5c-0.6,1.5-2,2.5-3.6,2.5h-18.4c-1.6,0-3-1-3.6-2.4c0-0.1,0-0.1,0-0.2
		l-0.1-0.2c0-0.1,0-0.1-0.1-0.1l-8.3-26.8l-8.6,27c-0.5,1.6-2,2.7-3.7,2.7h-18.2c-1.7,0-3.1-1.1-3.7-2.6l-0.1-0.2l-8.6-28.6
		l36.1-1.4c0,0,1.8-0.2,2.2-0.3c0.4-0.1,1.5-0.4,1.5-0.9c0,0,0,0,0,0v0v0c0,0,0,0,0,0c0-0.5-1-0.8-1.5-0.9c-0.4-0.1-2.2-0.3-2.2-0.3
		l-37.8-1.7l-8.4-27.8c-0.1-0.4-0.2-0.8-0.2-1.2c0-2.2,1.7-3.9,3.9-3.9h19.3c1.7,0,3.2,1.2,3.7,2.7c0,0.1,0.1,0.3,0.1,0.4l6.3,24.8
		l7.5-25.4c0.5-1.6,2-2.7,3.7-2.7h17.2c1.6,0,3,1,3.6,2.4l0.3,0.9l7.5,25.2l6.6-25.1c0-0.1,0-0.2,0.1-0.4c0.5-1.6,2-2.7,3.7-2.7
		h18.9c2.1,0,3.9,1.7,3.9,3.9c0,0.4-0.1,0.7-0.2,1.1C561.4,270.4,561.4,270.5,561.4,270.6"/>
</g>
</svg>
