<?xml version="1.0" encoding="utf-8"?>
<!-- Generator: Adobe Illustrator 23.0.0, SVG Export Plug-In . SVG Version: 6.00 Build 0)  -->
<svg version="1.1" id="Lag_1" xmlns="http://www.w3.org/2000/svg" xmlns:xlink="http://www.w3.org/1999/xlink" x="0px" y="0px"
	 viewBox="0 0 841.9 595.3" style="enable-background:new 0 0 841.9 595.3;" xml:space="preserve">
<style type="text/css">
	.st0{fill:#FFFFFF;}
	.st1{clip-path:url(#SVGID_2_);fill:#9E1981;}
</style>
<circle class="st0" cx="420.9" cy="282.5" r="154.3"/>
<g>
	<defs>
		<rect id="SVGID_1_" width="841.9" height="595.3"/>
	</defs>
	<clipPath id="SVGID_2_">
		<use xlink:href="#SVGID_1_"  style="overflow:visible;"/>
	</clipPath>
	<path class="st1" d="M479.8,357L479.8,357c0,3.9,3.6,6.2,7.7,6.2c5.4,0,10.1-3.3,10.1-8.2v-3c-2.2-0.6-5.2-1.2-9-1.2
		C482.9,350.7,479.8,353.2,479.8,357"/>
	<path class="st1" d="M419.7,124.6c-87.6,0-158.7,71-158.7,158.6c0,87.6,71,158.6,158.7,158.6c87.6,0,158.7-71,158.7-158.6
		C578.4,195.6,507.3,124.6,419.7,124.6 M331,287.1C331,287.1,331,287.1,331,287.1C331,287.2,331,287.2,331,287.1
		c0,0.5,1.1,0.8,1.5,0.9c0.4,0.1,2.2,0.3,2.2,0.3l36.3,1.4l-8.6,28.4c0,0,0,0.1,0,0.1l-0.2,0.5c-0.5,1.5-2,2.5-3.6,2.5h-18.4
		c-1.6,0-3-1-3.6-2.4c0-0.1,0-0.1-0.1-0.2l-0.1-0.2c0,0,0-0.1,0-0.1l-8.3-26.8l-8.7,27c-0.5,1.6-2,2.7-3.7,2.7h-18.2
		c-1.7,0-3.2-1.1-3.7-2.6l-0.1-0.3l-18.5-61.9c-0.1-0.3-0.2-0.7-0.2-1.1c0-2.2,1.7-3.9,3.9-3.9h19.3c1.7,0,3.2,1.2,3.7,2.7
		c0,0.1,0.1,0.2,0.1,0.4l6.3,24.8l7.6-25.4c0.5-1.6,2-2.7,3.7-2.7h17.2c1.6,0,3,1,3.6,2.4l0.3,0.9l7.5,25.2l6.6-25.1
		c0-0.1,0-0.2,0.1-0.4c0.5-1.6,2-2.7,3.7-2.7h18.9c2.1,0,3.9,1.7,3.9,3.9c0,0.4,0,0.7-0.1,1.1c0,0.1,0,0.1,0,0.2l-8.4,27.8
		l-37.9,1.7c0,0-1.8,0.2-2.2,0.3C332,286.3,331,286.7,331,287.1C331,287.1,331,287.1,331,287.1C331,287.1,331,287.1,331,287.1
		 M418.7,322.3c-21.3,0-36.7-14.4-38.6-32.3l28.5,1.1c1.8,4.3,5.6,7.2,10.1,7.2c4.5,0,8.4-3,10.1-7.2l28.6-1.1
		C455.5,307.8,440,322.3,418.7,322.3 M429.6,282.7c-1-4.3-4.1-7.7-8-8.8c-0.2-1.9-1.2-13.3-1.5-14c-0.3-0.8-1.1-0.8-1.2-0.8h-0.1
		h-0.1c-0.1,0-0.8,0-1.2,0.8c-0.3,0.7-1.3,12.1-1.5,14c-3.9,1.1-7,4.5-8,8.8l-28,1.2c1.1-18.6,17-34.2,39-34.2
		c21.9,0,37.6,15.3,38.7,33.9c0,0,0,0.1,0,0.4L429.6,282.7z M500,364.9h-2.5v-4.4c-1.8,2.5-5.1,5-10.2,5c-5,0-10.3-2.8-10.3-8.3
		v-0.1c0-5.5,4.7-8.6,11.6-8.6c3.7,0,6.3,0.5,8.8,1.1v-1.1c0-5.3-3.3-8.1-8.8-8.1c-3.2,0-5.9,0.9-8.3,2.1l-0.9-2.2
		c2.9-1.4,5.8-2.3,9.5-2.3c3.6,0,6.5,1,8.4,2.9c1.8,1.8,2.7,4.2,2.7,7.5V364.9z M510.7,364.9h-2.6v-26.6h2.6V364.9z M511,331.4h-3.2
		v-3.5h3.2V331.4z M533.5,340.7h-0.3c-6.2,0-11.5,4.6-11.5,13.3v10.9h-2.6v-26.6h2.6v7.5c2.1-4.7,6.5-8.2,11.8-8V340.7z
		 M562.6,256.6l-18.7,61.5c0,0,0,0.1,0,0.1l-0.2,0.5c-0.6,1.5-2,2.5-3.6,2.5h-18.4c-1.6,0-3-1-3.6-2.4c0-0.1,0-0.1,0-0.2l-0.1-0.2
		c0-0.1,0-0.1-0.1-0.1l-8.3-26.8l-8.6,27c-0.5,1.6-2,2.7-3.7,2.7H479c-1.7,0-3.1-1.1-3.7-2.6l-0.1-0.2l-8.6-28.6l36.1-1.4
		c0,0,1.8-0.2,2.2-0.3c0.4-0.1,1.5-0.4,1.5-0.9c0,0,0,0,0,0v0v0c0,0,0,0,0,0c0-0.5-1.1-0.8-1.5-0.9c-0.4-0.1-2.2-0.3-2.2-0.3
		l-37.8-1.7l-8.4-27.8c-0.1-0.4-0.2-0.8-0.2-1.2c0-2.2,1.7-3.9,3.9-3.9h19.3c1.7,0,3.2,1.2,3.7,2.7c0,0.1,0.1,0.3,0.1,0.4l6.3,24.8
		l7.5-25.4c0.5-1.6,2-2.7,3.7-2.7h17.2c1.6,0,3,1,3.6,2.4l0.3,0.9l7.5,25.2l6.6-25.1c0-0.1,0-0.2,0.1-0.4c0.5-1.6,2-2.7,3.7-2.7
		h18.9c2.1,0,3.9,1.7,3.9,3.9c0,0.4-0.1,0.7-0.2,1.1C562.7,256.4,562.6,256.5,562.6,256.6"/>
</g>
</svg>
